# xmcd
#
# Track frame offsets:
#	150
#	16947
#	54347
#	88647
#	120202
#
# Disc length: 1899 seconds
#
# Revision: 6
# Processed by: cddbd v1.5.2PL0 Copyright (c) Steve Scherf et al.
# Submitted via: audiograbber 1.83.01
#
DISCID=2c076905
DTITLE=Space Frog - X-Ray (Follow Me)
DYEAR=1997
DGENRE=Trance
TTITLE0=X-Ray (Follow Me) (Vocal Version Video Edit) (Feat. The Grim Reaper)
TTITLE1=X-Ray (Follow Me) (Spacerunner Mix)
TTITLE2=X-Ray (Follow Me) (Vocal Version) (Feat. The Grim Reaper)
TTITLE3=X-Ray (Follow Me) (Live Version)
TTITLE4=Die Welt Der Sterne
EXTD=ID3G:   0
EXTT0=
EXTT1=
EXTT2=
EXTT3=
EXTT4=
PLAYORDER=
